<?xml version="1.0" encoding="UTF-8" standalone="no"?>
<svg
   xmlns:dc="http://purl.org/dc/elements/1.1/"
   xmlns:cc="http://creativecommons.org/ns#"
   xmlns:rdf="http://www.w3.org/1999/02/22-rdf-syntax-ns#"
   xmlns:svg="http://www.w3.org/2000/svg"
   xmlns="http://www.w3.org/2000/svg"
   id="svg1042"
   version="1.1"
   viewBox="0 0 23.577345 28.917557"
   height="28.917557mm"
   width="23.577345mm">
  <defs
     id="defs1036">
    <clipPath
       id="clipPath18"
       clipPathUnits="userSpaceOnUse">
      <path
         id="path16"
         d="M 0,1451 H 1440 V 0 H 0 Z" />
    </clipPath>
  </defs>
  <metadata
     id="metadata1039">
    <rdf:RDF>
      <cc:Work
         rdf:about="">
        <dc:format>image/svg+xml</dc:format>
        <dc:type
           rdf:resource="http://purl.org/dc/dcmitype/StillImage" />
        <dc:title></dc:title>
      </cc:Work>
    </rdf:RDF>
  </metadata>
  <g
     transform="translate(-60.782758,-72.386456)"
     id="layer1">
    <g
       id="g12"
       transform="matrix(0.35277777,0,0,-0.35277777,-181.07586,559.45487)">
      <g
         clip-path="url(#clipPath18)"
         id="g14">
        <g
           transform="translate(685.5835,1302.8315)"
           id="g20">
          <path
             id="path22"
             style="fill:#333333;fill-opacity:1;fill-rule:evenodd;stroke:none"
             d="m 0,0 c 4.047,2.803 7.249,6.186 8.826,11.213 0.784,2.505 2.435,4.842 4.107,6.896 2.159,2.654 3.426,5.235 2.205,8.774 -0.51,1.477 -0.913,3.31 -0.528,4.74 1.23,4.561 -0.251,7.76 -4.11,10.296 -0.476,-0.554 -0.993,-1.156 -0.888,-1.036 -1.953,1.941 -3.898,3.875 -6.034,5.998 0.99,0.8 1.971,1.599 3.358,2.725 0.571,-1.583 0.964,-2.678 1.182,-3.276 7.574,-1.559 15.041,-2.816 22.327,-4.79 1.796,-0.485 3.098,-3.225 4.446,-5.074 0.926,-1.27 1.539,-2.792 2.295,-4.204 0.497,0.435 0.996,0.874 1.966,1.727 -0.155,-2.424 -0.272,-4.269 -0.397,-6.253 0.537,-0.044 1.453,-0.117 3.173,-0.258 C 41.007,26 40.482,24.891 39.72,24.003 c -0.965,-1.13 -2.025,-2.25 -3.242,-3.047 -0.891,-0.581 -2.688,-1.203 -3.053,-0.804 -0.832,0.922 -1.039,2.45 -1.501,3.744 -1.97,-0.86 -1.97,-0.86 -6.928,-8.315 -0.356,2.437 -0.711,4.872 -1.048,7.174 -0.42,-0.626 -1.058,-1.574 -1.713,-2.547 -3.124,2.539 -3.425,-0.927 -5.205,-2.685 1.99,0.17 0.398,-3.92 3.436,-2.112 0.075,-0.88 0.515,-2.017 0.141,-2.578 -0.672,-1.014 -1.828,-1.681 -2.784,-2.493 0.189,-0.258 0.377,-0.515 0.565,-0.775 h 1.285 C 19.995,6.69 20.484,3.984 20.534,1.269 20.564,-0.469 20.02,-2.243 19.52,-3.933 19.448,-4.177 17.578,-4.175 17.556,-4.064 16.968,-1.184 15.973,0.454 13.166,-2.13 11.353,0.36 9.137,-1.385 7.06,-1.47 4.709,-1.564 2.354,-1.494 0,-1.495 Z" />
        </g>
        <g
           transform="translate(724.0698,1374.9331)"
           id="g24">
          <path
             id="path26"
             style="fill:#333333;fill-opacity:1;fill-rule:evenodd;stroke:none"
             d="M 0,0 C 4.623,7.068 10.273,2.091 14.199,-5.554 9.481,-1.844 3.584,-4.639 0,0 m 28.267,-34.363 c -0.978,4.463 -2.77,8.901 -2.827,13.366 -0.047,3.694 -0.722,6.11 -4.377,7.738 1.415,0.676 2.338,0.41 3.265,0.852 -0.054,0.226 -0.104,-0.026 -0.158,-0.026 h -5.004 c -0.045,0 -0.087,1.166 -0.127,1.396 0.736,0.4 1.473,1.155 3.266,2.126 -5.607,-1.002 -3.93,2.988 -4.608,5.191 0.927,0.23 1.902,0.213 2.922,0.464 C 19.622,1.815 15.479,3.03 12.1,4.936 10.293,5.77 3.953,6.197 -0.91,4.958 -3.793,3.814 -7.812,2.801 -7.701,-1.292 c 0.081,-2.894 -1.217,-3.16 -3.034,-3.805 -3.592,-1.273 -7.253,-2.278 -10.778,-3.72 -5.515,-2.259 -9.693,-5.805 -10.299,-12.757 2.572,-1.192 5.279,-2.419 8.3,-3.816 0.123,1.809 0.194,2.881 0.234,3.471 2.158,0.701 3.986,1.3 5.769,1.881 -0.356,2.529 -0.662,4.696 -0.964,6.864 -1.007,-0.476 -2.016,-0.956 -3.026,-1.438 -0.209,0.514 -0.42,1.03 -0.628,1.544 3.303,1.361 6.608,2.724 9.912,4.086 0.198,-0.416 0.399,-0.83 0.597,-1.244 -0.587,-0.309 -1.153,-0.671 -1.763,-0.908 -0.714,-0.278 -1.469,-0.448 -2.205,-0.663 0.018,-0.315 0.034,-0.63 0.053,-0.946 2.38,0.316 2.555,-4.999 5.978,-2.134 0.152,0.127 0.705,-0.367 0.993,-0.283 1.328,0.392 2.626,0.888 4.576,1.568 1.126,-0.285 3.236,-0.825 5.347,-1.362 -2.485,4.957 -7.394,3.324 -11.287,5.392 4.226,4.45 9.374,1.679 13.612,3.069 0.619,0.806 1.557,1.845 2.218,1.681 2.964,-0.735 5.848,-1.811 9.623,-3.047 -0.897,-1.089 -1.526,-2.089 -2.37,-2.83 -2.027,-1.778 -4.153,-3.436 -6.24,-5.141 0.249,-0.337 0.495,-0.672 0.744,-1.009 0.376,0.199 0.746,0.411 1.133,0.584 0.053,0.023 0.185,-0.139 0.109,-0.078 -0.291,-1.662 -0.557,-3.209 -0.791,-4.559 -0.254,0.383 -0.473,1.078 -0.875,1.225 -0.441,0.161 -1.056,-0.182 -2.725,-0.564 2.845,-3.947 5.256,-7.29 7.231,-10.022 3.445,1.348 7.157,2.8 11.91,4.66 1.451,-3.575 2.979,-7.336 4.638,-11.415 0,1.082 0.141,1.899 -0.024,2.645" />
        </g>
      </g>
    </g>
  </g>
</svg>
