<?xml version="1.0" encoding="UTF-8" standalone="no"?>
<svg
   xmlns:dc="http://purl.org/dc/elements/1.1/"
   xmlns:cc="http://creativecommons.org/ns#"
   xmlns:rdf="http://www.w3.org/1999/02/22-rdf-syntax-ns#"
   xmlns:svg="http://www.w3.org/2000/svg"
   xmlns="http://www.w3.org/2000/svg"
   xmlns:sodipodi="http://sodipodi.sourceforge.net/DTD/sodipodi-0.dtd"
   xmlns:inkscape="http://www.inkscape.org/namespaces/inkscape"
   id="svg1042"
   version="1.1"
   viewBox="0 0 18.368364 18.368364"
   height="18.368364mm"
   width="18.368364mm"
   sodipodi:docname="logo.svg"
   inkscape:version="0.92.3 (2405546, 2018-03-11)">
  <sodipodi:namedview
     pagecolor="#ffffff"
     bordercolor="#666666"
     borderopacity="1"
     objecttolerance="10"
     gridtolerance="10"
     guidetolerance="10"
     inkscape:pageopacity="0"
     inkscape:pageshadow="2"
     inkscape:window-width="2560"
     inkscape:window-height="1385"
     id="namedview14"
     showgrid="false"
     fit-margin-top="0"
     fit-margin-left="0"
     fit-margin-right="0"
     fit-margin-bottom="0"
     inkscape:zoom="2.1592995"
     inkscape:cx="-88.381049"
     inkscape:cy="-24.258868"
     inkscape:window-x="0"
     inkscape:window-y="27"
     inkscape:window-maximized="1"
     inkscape:current-layer="g14" />
  <defs
     id="defs1036">
    <clipPath
       id="clipPath18"
       clipPathUnits="userSpaceOnUse">
      <path
         id="path16"
         d="M 0,1451 H 1440 V 0 H 0 Z"
         inkscape:connector-curvature="0" />
    </clipPath>
  </defs>
  <metadata
     id="metadata1039">
    <rdf:RDF>
      <cc:Work
         rdf:about="">
        <dc:format>image/svg+xml</dc:format>
        <dc:type
           rdf:resource="http://purl.org/dc/dcmitype/StillImage" />
        <dc:title></dc:title>
      </cc:Work>
    </rdf:RDF>
  </metadata>
  <g
     transform="translate(-63.338738,-75.657624)"
     id="layer1">
    <g
       id="g12"
       transform="matrix(0.35277777,0,0,-0.35277777,-181.07586,559.45487)">
      <g
         clip-path="url(#clipPath18)"
         id="g14">
        <path
           style="color:#000000;font-style:normal;font-variant:normal;font-weight:normal;font-stretch:normal;font-size:medium;line-height:normal;font-family:sans-serif;font-variant-ligatures:normal;font-variant-position:normal;font-variant-caps:normal;font-variant-numeric:normal;font-variant-alternates:normal;font-feature-settings:normal;text-indent:0;text-align:start;text-decoration:none;text-decoration-line:none;text-decoration-style:solid;text-decoration-color:#000000;letter-spacing:normal;word-spacing:normal;text-transform:none;writing-mode:lr-tb;direction:ltr;text-orientation:mixed;dominant-baseline:auto;baseline-shift:baseline;text-anchor:start;white-space:normal;shape-padding:0;clip-rule:nonzero;display:inline;overflow:visible;visibility:visible;opacity:1;isolation:auto;mix-blend-mode:normal;color-interpolation:sRGB;color-interpolation-filters:linearRGB;solid-color:#000000;solid-opacity:1;vector-effect:none;fill:#f2f2f2;fill-opacity:1;fill-rule:nonzero;stroke:none;stroke-width:3.20638132;stroke-linecap:square;stroke-linejoin:round;stroke-miterlimit:4;stroke-dasharray:none;stroke-dashoffset:0;stroke-opacity:1;paint-order:stroke markers fill;color-rendering:auto;image-rendering:auto;shape-rendering:auto;text-rendering:auto;enable-background:accumulate"
           d="m 718.7168,1369.2287 c -13.10238,0 -23.73839,-10.7868 -23.73839,-24.0256 0,-13.2388 10.63601,-24.0256 23.73839,-24.0256 13.10238,0 23.73839,10.7868 23.73839,24.0256 0,13.2388 -10.63601,24.0256 -23.73839,24.0256 z"
           id="path837-6"
           inkscape:connector-curvature="0"
           sodipodi:nodetypes="sssss" />
        <path
           style="color:#000000;font-style:normal;font-variant:normal;font-weight:normal;font-stretch:normal;font-size:medium;line-height:normal;font-family:sans-serif;font-variant-ligatures:normal;font-variant-position:normal;font-variant-caps:normal;font-variant-numeric:normal;font-variant-alternates:normal;font-feature-settings:normal;text-indent:0;text-align:start;text-decoration:none;text-decoration-line:none;text-decoration-style:solid;text-decoration-color:#000000;letter-spacing:normal;word-spacing:normal;text-transform:none;writing-mode:lr-tb;direction:ltr;text-orientation:mixed;dominant-baseline:auto;baseline-shift:baseline;text-anchor:start;white-space:normal;shape-padding:0;clip-rule:nonzero;display:inline;overflow:visible;visibility:visible;opacity:1;isolation:auto;mix-blend-mode:normal;color-interpolation:sRGB;color-interpolation-filters:linearRGB;solid-color:#000000;solid-opacity:1;vector-effect:none;fill:#3f3f3f;fill-opacity:1;fill-rule:nonzero;stroke:none;stroke-width:3.37916398;stroke-linecap:square;stroke-linejoin:round;stroke-miterlimit:4;stroke-dasharray:none;stroke-dashoffset:0;stroke-opacity:1;paint-order:stroke markers fill;color-rendering:auto;image-rendering:auto;shape-rendering:auto;text-rendering:auto;enable-background:accumulate"
           d="m 718.7168,1370.5234 c -3.45211,0 -6.74176,-0.7105 -9.73443,-1.9943 -2.99267,-1.2837 -5.68835,-3.1407 -7.95252,-5.4338 -2.26417,-2.293 -4.09683,-5.022 -5.36344,-8.0498 -1.26662,-3.0278 -1.96719,-6.3544 -1.96719,-9.8424 0,-13.9522 11.20914,-25.3203 25.01758,-25.3203 13.80843,0 25.01758,11.3681 25.01758,25.3203 0,13.9522 -11.20915,25.3203 -25.01758,25.3203 z m 0,-1.8808 c 11.95848,0 23.13672,-11.2901 23.13672,-23.4395 0,-8.4653 -2.45759,-8.8396 -6.57601,-11.5588 -6.57103,3.5195 -5.12007,2.584 -11.58618,6.1684 1.50836,-3.0127 9.83643,-4.8947 11.07826,-10.8863 -2.14468,-2.1708 -4.66307,-3.962 -7.39269,-5.2105 -2.72962,-1.2484 -5.67048,-1.9542 -8.6601,-1.9542 -11.95849,0 -23.13868,11.2921 -23.13868,23.4414 0,3.0374 0.69876,6.021 1.93376,8.788 1.23499,2.7669 4.56923,5.3172 6.71416,7.4878 1.62392,4.7757 6.22656,-0.1197 7.04603,3.9941 2.7298,1.2483 4.45511,3.1696 7.44473,3.1696 z"
           id="path837"
           inkscape:connector-curvature="0"
           sodipodi:nodetypes="sssssssssscccssssccs" />
        <g
           transform="translate(685.5835,1302.8315)"
           id="g20" />
        <g
           transform="matrix(0.69307668,0,0,0.69307668,721.07484,1363.8509)"
           id="g24"
           style="fill:#3f3f3f;fill-opacity:1">
          <path
             id="path26"
             style="fill:#3f3f3f;fill-opacity:1;fill-rule:evenodd;stroke:none;stroke-width:0.95310044"
             d="M -0.1538579,-1.255391 C 4.2523254,5.4811228 9.6373428,0.73754197 13.379216,-6.5489107 8.8824872,-3.0129082 3.262054,-5.6768238 -0.1538579,-1.255391 m 26.9412899,-32.75139 c -0.932133,4.253687 -2.640088,8.483547 -2.694415,12.739141 -0.0448,3.520752 -0.688139,5.823443 -4.17172,7.37509 1.348637,0.644297 2.228348,0.390772 3.111872,0.812042 -0.05146,0.2154 -0.09913,-0.02478 -0.15059,-0.02478 h -4.769314 c -0.04289,0 -0.08292,1.111316 -0.121044,1.330528 0.701483,0.381241 1.403917,1.100832 3.112827,2.0262924 -5.344035,-0.9550064 -3.745686,2.8478637 -4.391887,4.9475439 0.883523,0.2192131 1.812796,0.2030105 2.784959,0.4422386 -0.950241,4.83317343 -4.898936,5.9911904 -8.119463,7.8077998 -1.7222522,0.7948858 -7.7649089,1.2018596 -12.3998363,0.020968 -2.7477885,-1.0903469 -6.5782991,-2.0558376 -6.472505,-5.9568776 0.077201,-2.7582726 -1.1599232,-3.0117974 -2.8917067,-3.6265471 -3.423537,-1.2132969 -6.912837,-2.1711628 -10.272516,-3.5455341 -5.256349,-2.1530539 -9.238403,-5.5327469 -9.815981,-12.1587019 2.451374,-1.136095 5.031417,-2.30555 7.910733,-3.637031 0.117232,1.724159 0.184902,2.745882 0.223025,3.308212 2.056791,0.668123 3.799059,1.239031 5.498436,1.792782 -0.339303,2.410391 -0.630952,4.475759 -0.918788,6.542081 -0.959772,-0.453676 -1.921451,-0.911164 -2.884082,-1.370559 -0.199198,0.489894 -0.400302,0.981694 -0.598547,1.471588 3.14809,1.297169 6.298088,2.596245 9.447131,3.8943682 0.188714,-0.3964892 0.380288,-0.7910732 0.569001,-1.1856572 -0.55947,-0.294508 -1.098925,-0.639531 -1.680315,-0.865415 -0.680514,-0.264963 -1.400105,-0.426989 -2.101587,-0.631906 0.01715,-0.300227 0.0324,-0.600453 0.05051,-0.901633 2.268379,0.30118 2.435172,-4.764549 5.697635,-2.033917 0.1448713,0.121045 0.6719357,-0.349787 0.9464286,-0.269727 1.2657175,0.373616 2.5028418,0.846354 4.3613876,1.494462 1.0731911,-0.271634 3.084233,-0.786308 5.096228,-1.298123 -2.3684546,4.724519 -7.0472246,3.168106 -10.7576445,5.139118 4.0278024,4.2412964 8.9343634,1.6002548 12.9736031,2.9250648 0.5899691,0.7681988 1.4839773,1.7584702 2.1139767,1.6021618 2.8249896,-0.7005288 5.5737315,-1.7260649 9.1716855,-2.9040971 -0.854931,-1.0379259 -1.454431,-1.9910265 -2.258848,-2.6972745 -1.931935,-1.694612 -3.9582262,-3.274853 -5.9473468,-4.899889 0.237322,-0.321195 0.4717847,-0.640483 0.7091067,-0.961678 0.3583657,0.189667 0.7110129,0.391725 1.0798628,0.556611 0.050515,0.02192 0.1763235,-0.132481 0.1038878,-0.07435 -0.2773522,-1.584053 -0.5308769,-3.058499 -0.7539024,-4.345184 -0.2420875,0.365037 -0.4508165,1.027442 -0.8339629,1.167547 -0.4203173,0.15345 -1.006474,-0.173464 -2.5971986,-0.537548 2.7115707,-3.761887 5.0094958,-6.948102 6.8918694,-9.551972 3.283431,1.284779 6.821339,2.66868 11.351425,4.441447 1.382949,-3.407334 2.839287,-6.991945 4.42048,-10.879641 0,1.031255 0.134387,1.809938 -0.02287,2.520951 m -51.296151,-18.70898 c 2.057743,2.529528 3.265322,4.989481 2.101586,8.362503 -0.486081,1.40773 -0.870181,3.154762 -0.503237,4.517696 1.172314,4.34709 -0.239228,7.396059 -3.917242,9.813122 -0.453676,-0.528018 -0.946429,-1.101784 -0.846354,-0.987412 -1.861405,1.849968 -3.715186,3.693264 -5.751008,5.716696 0.943569,0.76248 1.878561,1.524007 3.200512,2.597199 0.544219,-1.508758 0.918789,-2.552404 1.126564,-3.122358 7.218782,-1.485883 14.335584,-2.68393 21.2798732,-4.56535 1.7117683,-0.462254 2.9527051,-3.073749 4.2374845,-4.836031 0.882571,-1.210438 1.4668215,-2.661057 2.1873654,-4.006835 0.473691,0.414599 0.94928809,0.833009 1.87379551,1.646004 -0.14773057,-2.310315 -0.25924332,-4.068785 -0.37838087,-5.959736 0.51181493,-0.04193 1.38485496,-0.111514 3.02418766,-0.245901 -0.8778055,-1.408682 -1.3781832,-2.465671 -2.1044457,-3.312023 -0.91974196,-1.077004 -1.93002844,-2.144476 -3.0899516,-2.904097 -0.8492125,-0.553752 -2.561934,-1.14658 -2.9098156,-0.766293 -0.7929796,0.878758 -0.9902714,2.335095 -1.4306037,3.568408 -1.8776079,-0.819666 -1.8776079,-0.819666 -6.6030798,-7.92503 -0.339303,2.322705 -0.677655,4.643505 -0.998849,6.837542 -0.400302,-0.59664 -1.008381,-1.50018 -1.632662,-2.427547 -2.977485,2.419923 -3.264369,-0.883523 -4.960887,-2.559074 1.89667,0.162027 0.379335,-3.736154 3.274853,-2.012948 0.07148,-0.838729 0.490847,-1.922403 0.134387,-2.457094 -2.764695,1.367628 -3.925789,1.998206 -7.314092,5.028559 z"
             inkscape:connector-curvature="0" />
        </g>
      </g>
    </g>
  </g>
</svg>
