<svg version="1" xmlns="http://www.w3.org/2000/svg" width="1376" height="1376" viewBox="0 0 1032.000000 1032.000000"><path d="M613.7 99.6c-.1.1-5.6.5-12.2.9s-12.9.9-14 1.1c-1.1.2-4.1.6-6.7.9-7.9.9-19.2 2.5-20.8 3-.8.2-3.1.7-5 1-8.4 1.4-13.4 3-28.4 8.6-34 12.8-51.3 23.2-61.9 37.1-3.1 4-8.1 14.2-9.2 18.3-.7 2.9-.9 4.4-2 11-.2 1.6-.5 7.5-.6 13-.4 21.8-5.5 31-21.4 38.6-4.5 2.1-35.1 12.8-68 23.8-74 24.6-96.9 33.3-119.5 45.4-34.6 18.5-57.7 38.4-75.3 64.8-14 21.1-23.6 47.5-27.1 74.6-.3 2.4-.8 6.1-1.1 8.3l-.6 4 7.6 3.5c4.2 1.9 7.8 3.5 7.9 3.5.2 0 5.5 2.4 11.7 5.3 31.7 15 80 36.9 80.4 36.5.4-.4 1-7.8 2-24.3.5-9.5 1.5-19.9 1.8-20.1.2-.1 60.1-19.6 67.9-22.1 3.2-1 5.9-2.3 6.2-2.9.2-.6 0-3-.4-5.5-.5-2.4-1.1-6.4-1.4-8.9-.3-2.5-1.5-11-2.6-19s-2.2-16.1-2.5-18c-.5-4.2-4.5-31.6-5-34.5-.1-1.1-.7-1.9-1.1-1.8-1.4.2-35.8 16.5-37 17.4-1.1.9-2.5-1.7-7.3-13.8-1.5-3.9-1.7-5.3-.8-6 .7-.5 7.1-3.3 14.2-6.2 7.2-2.9 14.4-5.9 16-6.6 1.7-.7 12.9-5.4 25-10.3 12.1-5 33-13.6 46.4-19.1 13.4-5.6 24.7-10.1 25.1-10.1 1 0 8.1 15 7.6 15.9-1.5 2.3-26.4 13.3-36.6 16.1-6.3 1.7-12.1 3.3-12.7 3.5-.8.3-1.2 2.5-1.2 6.5.1 5.4.3 6 2.3 6.1 8.9.3 15.1 4.7 25.1 17.9 12.6 16.7 19.6 21.7 29 20.7 5.7-.6 11.9-3.3 17.6-7.8 4.4-3.5 4.3-3.5 10.7-.8l5.1 2.1 20.8-7c11.4-3.9 24.6-8.5 29.3-10.3 4.7-1.7 9.4-3.1 10.5-3 1.6 0 61 14.7 67.8 16.7 1.4.4 1.1-.5-1.4-4.8-16.5-28.2-39.2-40.9-86.3-48.2-15.9-2.5-35.8-7.5-46.5-11.6-11.6-4.5-11.4-4.2-5.6-9.8 6.6-6.4 14.5-12.2 22.7-16.6 8-4.4 25.5-10.2 33.5-11.1 3.2-.4 6.7-1 7.8-1.3 1.1-.3 20.7-.6 43.5-.7 41.8-.1 46.2-.4 59.8-4.2 2.8-.8 5.2-1.8 5.2-2.3 0-1.7 15.8-16.9 19.7-18.9 5.1-2.6 6.5-2.4 25.3 2.8 18.2 5.1 107 34.4 107 35.3 0 .8-18.3 24.2-23.3 29.7-3.8 4.2-28.1 25.5-36.7 32.1-2.5 1.9-4.7 3.7-5 4-.3.3-6.3 5.3-13.5 11-7.1 5.8-13.2 10.7-13.5 11-.3.3-4.6 3.9-9.7 7.9l-9.2 7.4 4.1 5.9c2.3 3.3 4.5 6.1 4.9 6.4.5.3 4-1.1 7.9-3.1 7.1-3.6 9.5-3.8 8.6-.7-.3 1-.8 3-1 4.7-.3 1.6-1.2 7-2.1 12-2.8 15.7-3.4 19.2-5.8 33.4l-1.2 7.4-2.9-5.4c-4.4-8.2-7.3-10.9-11.7-10.9-3.7 0-29.8 6.6-31.1 7.9-.3.3 4.2 7.2 10 15.2 11.6 15.8 46.9 64.6 51.6 71.3 14.4 20.5 31 42.6 32 42.6 1.2 0 7.4-2.3 14.1-5.1 1.1-.4 4.5-1.8 7.5-2.9 3-1.2 6.4-2.6 7.5-3 1.1-.5 13.3-5.2 27-10.5 13.8-5.3 26.4-10.3 28-11 1.7-.6 6.8-2.7 11.5-4.5 4.7-1.7 9.4-3.6 10.5-4.1 1.1-.4 10.8-4.2 21.5-8.4 10.7-4.1 21-8.2 22.8-9l3.3-1.5 1.5 3.7c.9 2.1 2.5 5.8 3.6 8.3 1.1 2.5 2.1 5.2 2.3 6 .3.8 3.4 8.7 7 17.5 3.7 8.8 11.8 28.8 18.2 44.5 6.3 15.7 12.1 29.8 12.8 31.5.7 1.6 4.1 10 7.5 18.5 3.5 8.5 6.6 15.9 7 16.4.5.4.7-6.6.7-15.5-.2-13.4-.6-18.1-2.5-25.9-2.9-11.7-2.6-10.6-5.7-22-1.4-5.2-3.7-13.8-5.1-19-1.3-5.2-2.9-10.6-3.4-12-1-2.8-9.9-36.7-10.6-40.2-.2-1.3-.6-3.2-.8-4.3-1.9-8.8-3.6-16.9-4.1-19.2-.3-1.6-.7-3.7-.9-4.9-.2-1.2-.7-4.5-1.1-7.5-.3-3-.8-6.1-1-6.9-.6-2.3-1.6-16.1-2-30-.7-22.2-2.6-35.9-6.6-48.1-6.7-20.5-20.3-35.5-42.5-47l-7.5-3.9 4.3-1.8c5.2-2.2 11.5-3.9 18.3-4.7 7.8-1 18.4-3.6 19-4.6.4-.5-.3-.6-1.7-.1-2.6.9-62.9.8-64.4 0-.5-.4-1.1-3.7-1.2-7.5-.1-3.7-.4-7.5-.7-8.3-.2-1 1.7-2.9 5.3-5.4 13-9 27-18.3 31.2-20.9l4.5-2.7-4.5.5c-20.8 2.6-35.3-.4-42.5-8.8-6-7-7.8-14.9-9-40.2-.4-6.1-1-12.6-1.5-14.5-.6-1.9-1-3.8-1-4.2 0-.8 8-2.4 16.5-3.3 10.9-1.2 13-1.5 16-2.2 1.7-.4 3.3-.7 3.7-.7 1.7-.2 1.6-1.8-.2-8.7-9-32.8-28.6-55.1-67-76.1-3.6-1.9-13.2-7-21.3-11.2-8.2-4.3-16.3-8.5-18-9.5-7.4-4.1-24.5-8.1-41.2-9.6-14.4-1.3-23.6-1.8-39.3-1.9-10.1-.1-18.4-.1-18.5 0zm11.1 30.8c17 1.9 35.4 12.7 54.8 32 12.4 12.5 18.8 20.3 29.6 36.1 12.5 18.3 29.5 47.6 26.6 45.9-.7-.4-3.5-2.3-6.3-4.2-16-10.9-41.9-19.5-69-22.8-2.2-.3-5.1-.7-6.3-1-1.3-.3-4.3-.7-6.5-1-9.4-1.2-24.4-3.4-26.7-3.9-20.5-4.1-36.3-10.3-48.3-18.9-8.6-6.1-20.2-18.3-19-19.9 16.6-22.1 24.8-29.9 39-37.1 6.7-3.4 21.6-6.8 25.8-5.9.6.1 3.4.4 6.3.7z"/><path d="M137.5 470.6c-2.2 2-11.6 9.7-20.9 17.2l-16.8 13.5 39.2 39.1 39.3 39 2.1-2.5c1.1-1.4 3.7-4.5 5.8-6.9l3.6-4.3 5.4 3.8c22 15.9 35.8 31.4 44.4 50 8.8 19 10.8 37.5 7 64-.2 1.6-1.4 7-2.6 12-2.5 9.9-3.4 26.1-1.9 34.2 3 15.7 5.5 25.5 8 31.8 8 20.3 7.6 47.3-1 69-4.9 12.1-17.6 32.9-25.2 41.1-1 1.1-1.9 2.5-1.9 3.1 0 .5 2.6 3.2 5.7 5.9s7 6.1 8.7 7.6c18.6 16.2 37.1 29.6 54.1 39.3 14.3 8.1 30.3 16.1 31 15.4.3-.3.8-2.5 1.1-4.8.5-3.7 0-8.1-2.2-19.6-.3-1.7-.7-4-.8-5.3-.3-2.6-.7-2.6-6.6 0-5.9 2.7-11.4 3.2-15 1.3-2.9-1.5-5.3-6.4-8-16.5-2.7-9.8-7.1-15.3-12.5-15.3-1.7.1-2.3-.3-1.7-1.1.5-.6 2.4-3.1 4.4-5.6 1.9-2.5 6.9-10 11.1-16.6 12.1-19.2 17.9-23.9 28.1-22.9 5.4.5 16.3 5.4 19.2 8.6.9 1.1 2.2 1.9 2.9 1.9 1.1 0 10.1-12.7 18.6-26.3 4.4-7.1 4-7.8 6.9 12.3.5 3.6 1.2 8.3 1.5 10.5.4 2.2.8 5.1 1 6.5.6 4.1 1.7 11.4 2.1 13.5.2 1.1.7 4.5 1 7.5.3 3 .7 5.7.9 6 .2.3.7 3.5 1 7 .4 3.6.8 6.7 1 7 .2.3.6 3.4 1 7s1 7 1.3 7.6c.4.6 9-11.2 19.2-26.4 39.4-58.6 47.2-68.1 62.4-75.5 2.8-1.4 5.9-2.7 6.9-2.9 2-.3 2.5.8 6.2 13.7 5 17.8 8.7 26.4 13.7 32.1 3.2 3.6 3.3 3.6 9.3 3.1 21-2 44.2-17.6 70.2-47.3 8-9.1 16.7-22.2 27.3-41 1-1.7 2.4-4.1 3.1-5.2.7-1.2 1.1-2.3.9-2.5-.5-.4-7.2-1.1-23-2.3-3.6-.3-7.8-.7-9.5-.9-1.6-.2-4.3-.4-5.8-.4-1.6-.1-2.6-.4-2.4-.9.3-.4.8-5.7 1.1-11.7.4-6.1.9-13.7 1.1-17 .3-3.3.7-10.1 1-15 .5-9.8 1.4-24.2 2-31.8l.3-4.8-5.6 4.8c-3.2 2.6-7.5 6.4-9.6 8.3-4.3 3.9-5.2 4.7-8.3 7.3l-2.1 1.9-8.7-17.4c-9.6-19.1-15.9-30-26.8-45.8-4-5.8-9.1-13.5-11.4-17-15.2-23.8-27.7-36.1-40.8-40.3-9.7-3.1-69.1-17.6-86.5-21.1-1.4-.3-7.9-1.6-14.5-3.1-14.4-3.1-35.2-7.5-38-8.1-1.1-.2-3.1-.6-4.5-.9-1.4-.3-3.6-.7-5-1-1.4-.3-3.6-.7-5-1-1.4-.3-3.4-.7-4.5-.9-7.5-1.4-71.8-14.1-79.5-15.7-5.2-1-10.6-2.1-12-2.3-17.2-3.1-39.7-8.1-40.2-9-.6-.8-12.1-32.4-14.3-39.4-.7-2-2.8-1.3-7 2.4z"/></svg>